<svg width="67" height="58" viewBox="0 0 67 58" fill="none" xmlns="http://www.w3.org/2000/svg">
<path d="M46.057 21.11L33.517 13.87C33.3627 13.7808 33.1877 13.7339 33.0095 13.7339C32.8313 13.7339 32.6562 13.7808 32.502 13.87L19.962 21.11C19.8077 21.199 19.6796 21.3269 19.5904 21.481C19.5013 21.6351 19.4542 21.81 19.454 21.988V36.468C19.454 36.83 19.648 37.165 19.962 37.347L32.502 44.587C32.816 44.768 33.202 44.768 33.517 44.587L46.057 37.347C46.371 37.166 46.564 36.831 46.564 36.468V21.988C46.564 21.625 46.371 21.291 46.057 21.109V21.11Z" fill="#8080F2"/>
<path d="M0.404005 27.705L15.388 1.638C15.932 0.695 16.938 0 18.026 0H47.993C49.082 0 50.087 0.695 50.632 1.638L65.615 27.648C65.8823 28.1162 66.0229 28.6459 66.0229 29.185C66.0229 29.7241 65.8823 30.2538 65.615 30.722L50.632 56.576C50.087 57.518 49.082 58 47.993 58H18.026C16.938 58 15.932 57.533 15.388 56.59L0.405005 30.694C0.137584 30.2412 -0.003479 29.7249 -0.003479 29.199C-0.003479 28.6731 0.137584 28.1568 0.405005 27.704L0.404005 27.705ZM12.811 40.239C12.811 40.623 13.042 40.977 13.374 41.169L32.46 52.18C32.792 52.372 33.208 52.372 33.54 52.18L52.64 41.169C52.972 40.977 53.204 40.623 53.204 40.239V18.216C53.204 17.833 52.975 17.478 52.644 17.286L33.557 6.277C33.3928 6.18278 33.2068 6.13321 33.0175 6.13321C32.8282 6.13321 32.6422 6.18278 32.478 6.277L13.376 17.287C13.044 17.479 12.81 17.834 12.81 18.217V40.24L12.811 40.239Z" fill="#4B32C3"/>
</svg>
