<svg width="24" height="21" viewBox="0 0 24 21" fill="none" xmlns="http://www.w3.org/2000/svg">
<path d="M12 14.4317C18.0751 14.4317 23 12.5513 23 10.2317C23 7.91214 18.0751 6.03174 12 6.03174C5.92487 6.03174 1 7.91214 1 10.2317C1 12.5513 5.92487 14.4317 12 14.4317Z" stroke="#61DAFB"/>
<path d="M8.36272 12.3317C11.4003 17.593 15.4912 20.9178 17.5 19.758C19.5089 18.5982 18.6749 13.393 15.6373 8.13175C12.5998 2.87053 8.50885 -0.454329 6.50002 0.705469C4.49119 1.86527 5.32515 7.07053 8.36272 12.3317Z" stroke="#61DAFB"/>
<path d="M8.36272 8.13194C5.32515 13.3932 4.49119 18.5984 6.50002 19.7582C8.50885 20.918 12.5998 17.5932 15.6373 12.3319C18.6749 7.07072 19.5089 1.86546 17.5 0.705664C15.4912 -0.454134 11.4003 2.87072 8.36272 8.13194Z" stroke="#61DAFB"/>
</svg>
