<svg width="129" height="128" viewBox="0 0 129 128" fill="none" xmlns="http://www.w3.org/2000/svg">
<path d="M125.266 19.5202L67.824 122.238C66.637 124.359 63.59 124.371 62.387 122.262L3.80501 19.5322C2.49201 17.2302 4.45701 14.4452 7.06601 14.9102L64.57 25.1872C64.937 25.2542 65.313 25.2542 65.68 25.1872L121.98 14.9262C124.578 14.4532 126.555 17.2152 125.266 19.5202Z" fill="url(#paint0_linear_3398_356)"/>
<path d="M91.96 1.42999L49.454 9.75799C49.1147 9.82428 48.8071 10.0014 48.5794 10.2615C48.3517 10.5216 48.2168 10.8499 48.196 11.195L45.579 55.363C45.5649 55.6052 45.6074 55.8474 45.7032 56.0703C45.7989 56.2932 45.9452 56.4908 46.1305 56.6474C46.3159 56.804 46.5351 56.9153 46.7709 56.9725C47.0066 57.0297 47.2525 57.0313 47.489 56.977L59.325 54.242C59.5799 54.1834 59.8454 54.1898 60.0972 54.2605C60.349 54.3312 60.579 54.4641 60.7662 54.6468C60.9533 54.8296 61.0915 55.0564 61.1682 55.3064C61.2449 55.5565 61.2575 55.8218 61.205 56.078L57.688 73.297C57.6342 73.562 57.6502 73.8365 57.7343 74.0935C57.8185 74.3505 57.9679 74.5812 58.168 74.7631C58.368 74.9451 58.6119 75.0719 58.8757 75.1313C59.1395 75.1907 59.4142 75.1806 59.673 75.102L66.981 72.879C68.114 72.535 69.204 73.531 68.966 74.691L63.376 101.738C63.028 103.43 65.278 104.352 66.216 102.902L66.841 101.934L101.481 32.804C102.063 31.644 101.06 30.324 99.791 30.57L87.606 32.922C87.3438 32.9729 87.0729 32.9556 86.8193 32.8717C86.5657 32.7878 86.338 32.64 86.158 32.4427C85.9779 32.2454 85.8516 32.0051 85.7912 31.745C85.7308 31.4848 85.7383 31.2134 85.813 30.957L93.763 3.39499C93.8377 3.13763 93.8449 2.86536 93.7838 2.60442C93.7228 2.34349 93.5955 2.10268 93.4143 1.90522C93.2332 1.70775 93.0042 1.5603 92.7494 1.47706C92.4947 1.39382 92.2228 1.37761 91.96 1.42999Z" fill="url(#paint1_linear_3398_356)"/>
<defs>
<linearGradient id="paint0_linear_3398_356" x1="2.37321" y1="11.2398" x2="73.867" y2="108.334" gradientUnits="userSpaceOnUse">
<stop stop-color="#41D1FF"/>
<stop offset="1" stop-color="#BD34FE"/>
</linearGradient>
<linearGradient id="paint1_linear_3398_356" x1="61.27" y1="3.68997" x2="74.2029" y2="92.4082" gradientUnits="userSpaceOnUse">
<stop stop-color="#FFEA83"/>
<stop offset="0.083" stop-color="#FFDD35"/>
<stop offset="1" stop-color="#FFA800"/>
</linearGradient>
</defs>
</svg>
